<mxfile host="app.diagrams.net" modified="2024-04-05T06:20:39.219Z" agent="Mozilla/5.0 (Windows NT 10.0; Win64; x64) AppleWebKit/537.36 (KHTML, like Gecko) Chrome/122.0.0.0 Safari/537.36" version="24.2.2" etag="-Ra479O-LglMPnWZV3kb" type="github">
  <diagram name="Page-1" id="5gxTvzlELDowgtnOL3Px">
    <mxGraphModel>
      <root>
        <mxCell id="0" />
        <mxCell id="1" parent="0" />
      </root>
    </mxGraphModel>
  </diagram>
</mxfile>
